<mxfile host="app.diagrams.net" agent="Mozilla/5.0 (Windows NT 10.0; Win64; x64) AppleWebKit/537.36 (KHTML, like Gecko) Chrome/130.0.0.0 Safari/537.36" version="24.8.3">
  <diagram name="Seite-1" id="Pswi56oVJqAGP2YK2Thq">
    <mxGraphModel grid="1" page="1" gridSize="10" guides="1" tooltips="1" connect="1" arrows="1" fold="1" pageScale="1" pageWidth="827" pageHeight="1169" math="0" shadow="0">
      <root>
        <mxCell id="0" />
        <mxCell id="1" parent="0" />
        <mxCell id="Qe7jtC1Gjov7ooiE8B-M-1" value="" style="ellipse;" vertex="1" parent="1">
          <mxGeometry x="384" y="20" width="30" height="30" as="geometry" />
        </mxCell>
        <mxCell id="ymSWXSZjxfcndTdVbxmt-2" value="" style="edgeStyle=orthogonalEdgeStyle;rounded=0;orthogonalLoop=1;jettySize=auto;html=1;" edge="1" parent="1" source="Qe7jtC1Gjov7ooiE8B-M-2" target="ymSWXSZjxfcndTdVbxmt-1">
          <mxGeometry relative="1" as="geometry" />
        </mxCell>
        <mxCell id="Qe7jtC1Gjov7ooiE8B-M-2" value="User executes the application" style="rounded=1;whiteSpace=wrap;html=1;" vertex="1" parent="1">
          <mxGeometry x="339" y="80" width="120" height="60" as="geometry" />
        </mxCell>
        <mxCell id="Qe7jtC1Gjov7ooiE8B-M-4" value="" style="endArrow=classic;html=1;rounded=0;exitX=0.5;exitY=1;exitDx=0;exitDy=0;entryX=0.5;entryY=0;entryDx=0;entryDy=0;" edge="1" parent="1" source="Qe7jtC1Gjov7ooiE8B-M-1" target="Qe7jtC1Gjov7ooiE8B-M-2">
          <mxGeometry width="50" height="50" relative="1" as="geometry">
            <mxPoint x="380" y="270" as="sourcePoint" />
            <mxPoint x="430" y="220" as="targetPoint" />
          </mxGeometry>
        </mxCell>
        <mxCell id="ymSWXSZjxfcndTdVbxmt-18" value="" style="edgeStyle=orthogonalEdgeStyle;rounded=0;orthogonalLoop=1;jettySize=auto;html=1;" edge="1" parent="1" source="ymSWXSZjxfcndTdVbxmt-1" target="ymSWXSZjxfcndTdVbxmt-17">
          <mxGeometry relative="1" as="geometry" />
        </mxCell>
        <mxCell id="ymSWXSZjxfcndTdVbxmt-1" value="Exercise" style="whiteSpace=wrap;html=1;rounded=1;" vertex="1" parent="1">
          <mxGeometry x="339" y="220" width="120" height="60" as="geometry" />
        </mxCell>
        <mxCell id="ymSWXSZjxfcndTdVbxmt-6" value="" style="edgeStyle=orthogonalEdgeStyle;rounded=0;orthogonalLoop=1;jettySize=auto;html=1;" edge="1" parent="1" target="ymSWXSZjxfcndTdVbxmt-5">
          <mxGeometry relative="1" as="geometry">
            <mxPoint x="399" y="510" as="sourcePoint" />
          </mxGeometry>
        </mxCell>
        <mxCell id="ymSWXSZjxfcndTdVbxmt-3" value="Add Unit" style="whiteSpace=wrap;html=1;rounded=1;" vertex="1" parent="1">
          <mxGeometry x="339" y="450" width="120" height="60" as="geometry" />
        </mxCell>
        <mxCell id="ymSWXSZjxfcndTdVbxmt-8" value="" style="edgeStyle=orthogonalEdgeStyle;rounded=0;orthogonalLoop=1;jettySize=auto;html=1;entryX=0;entryY=0.5;entryDx=0;entryDy=0;" edge="1" parent="1" source="ymSWXSZjxfcndTdVbxmt-5" target="ymSWXSZjxfcndTdVbxmt-27">
          <mxGeometry relative="1" as="geometry">
            <mxPoint x="590" y="600" as="targetPoint" />
          </mxGeometry>
        </mxCell>
        <mxCell id="ymSWXSZjxfcndTdVbxmt-10" value="" style="edgeStyle=orthogonalEdgeStyle;rounded=0;orthogonalLoop=1;jettySize=auto;html=1;" edge="1" parent="1" source="ymSWXSZjxfcndTdVbxmt-5" target="ymSWXSZjxfcndTdVbxmt-9">
          <mxGeometry relative="1" as="geometry" />
        </mxCell>
        <mxCell id="ymSWXSZjxfcndTdVbxmt-44" style="edgeStyle=orthogonalEdgeStyle;rounded=0;orthogonalLoop=1;jettySize=auto;html=1;exitX=0;exitY=0.5;exitDx=0;exitDy=0;entryX=0;entryY=0.5;entryDx=0;entryDy=0;" edge="1" parent="1" source="ymSWXSZjxfcndTdVbxmt-5" target="ymSWXSZjxfcndTdVbxmt-1">
          <mxGeometry relative="1" as="geometry">
            <mxPoint x="300" y="220" as="targetPoint" />
          </mxGeometry>
        </mxCell>
        <mxCell id="ymSWXSZjxfcndTdVbxmt-5" value="View Available Exercise or add new Exercise?" style="rhombus;whiteSpace=wrap;html=1;rounded=1;" vertex="1" parent="1">
          <mxGeometry x="359" y="560" width="80" height="80" as="geometry" />
        </mxCell>
        <mxCell id="ymSWXSZjxfcndTdVbxmt-41" style="edgeStyle=orthogonalEdgeStyle;rounded=0;orthogonalLoop=1;jettySize=auto;html=1;exitX=1;exitY=0.5;exitDx=0;exitDy=0;" edge="1" parent="1" source="ymSWXSZjxfcndTdVbxmt-9">
          <mxGeometry relative="1" as="geometry">
            <mxPoint x="400" y="540" as="targetPoint" />
            <Array as="points">
              <mxPoint x="260" y="760" />
              <mxPoint x="260" y="540" />
            </Array>
          </mxGeometry>
        </mxCell>
        <mxCell id="ymSWXSZjxfcndTdVbxmt-9" value="Fill in details such as name, weight and repetitions" style="whiteSpace=wrap;html=1;rounded=1;" vertex="1" parent="1">
          <mxGeometry x="339" y="730" width="120" height="60" as="geometry" />
        </mxCell>
        <mxCell id="ymSWXSZjxfcndTdVbxmt-12" value="View available exercise(&amp;nbsp;&lt;span style=&quot;text-wrap-mode: wrap;&quot;&gt;User presses on one of the exercises buttons)&lt;/span&gt;" style="text;html=1;align=center;verticalAlign=middle;resizable=0;points=[];autosize=1;strokeColor=none;fillColor=none;" vertex="1" parent="1">
          <mxGeometry x="320" y="610" width="400" height="30" as="geometry" />
        </mxCell>
        <mxCell id="ymSWXSZjxfcndTdVbxmt-13" value="Add new exercise" style="text;html=1;align=center;verticalAlign=middle;resizable=0;points=[];autosize=1;strokeColor=none;fillColor=none;" vertex="1" parent="1">
          <mxGeometry x="400" y="670" width="120" height="30" as="geometry" />
        </mxCell>
        <mxCell id="ymSWXSZjxfcndTdVbxmt-20" value="" style="edgeStyle=orthogonalEdgeStyle;rounded=0;orthogonalLoop=1;jettySize=auto;html=1;" edge="1" parent="1" source="ymSWXSZjxfcndTdVbxmt-17" target="ymSWXSZjxfcndTdVbxmt-19">
          <mxGeometry relative="1" as="geometry" />
        </mxCell>
        <mxCell id="ymSWXSZjxfcndTdVbxmt-21" value="" style="edgeStyle=orthogonalEdgeStyle;rounded=0;orthogonalLoop=1;jettySize=auto;html=1;" edge="1" parent="1" source="ymSWXSZjxfcndTdVbxmt-17" target="ymSWXSZjxfcndTdVbxmt-3">
          <mxGeometry relative="1" as="geometry" />
        </mxCell>
        <mxCell id="ymSWXSZjxfcndTdVbxmt-17" value="New Unit or view previous Unit" style="rhombus;whiteSpace=wrap;html=1;rounded=1;" vertex="1" parent="1">
          <mxGeometry x="359" y="310" width="80" height="80" as="geometry" />
        </mxCell>
        <mxCell id="ymSWXSZjxfcndTdVbxmt-49" value="" style="edgeStyle=orthogonalEdgeStyle;rounded=0;orthogonalLoop=1;jettySize=auto;html=1;" edge="1" parent="1" source="ymSWXSZjxfcndTdVbxmt-19" target="ymSWXSZjxfcndTdVbxmt-48">
          <mxGeometry relative="1" as="geometry" />
        </mxCell>
        <mxCell id="ymSWXSZjxfcndTdVbxmt-19" value="Exercise Tab of the Selected workout" style="whiteSpace=wrap;html=1;rounded=1;" vertex="1" parent="1">
          <mxGeometry x="550" y="320" width="120" height="60" as="geometry" />
        </mxCell>
        <mxCell id="ymSWXSZjxfcndTdVbxmt-22" value="prev Unit(&lt;span style=&quot;text-wrap-mode: wrap;&quot;&gt;User presses on one of the workouts&lt;/span&gt;)" style="text;html=1;align=center;verticalAlign=middle;resizable=0;points=[];autosize=1;strokeColor=none;fillColor=none;" vertex="1" parent="1">
          <mxGeometry x="359" y="300" width="270" height="30" as="geometry" />
        </mxCell>
        <mxCell id="ymSWXSZjxfcndTdVbxmt-23" value="new Unit" style="text;html=1;align=center;verticalAlign=middle;resizable=0;points=[];autosize=1;strokeColor=none;fillColor=none;" vertex="1" parent="1">
          <mxGeometry x="400" y="398" width="70" height="30" as="geometry" />
        </mxCell>
        <mxCell id="ymSWXSZjxfcndTdVbxmt-43" style="edgeStyle=orthogonalEdgeStyle;rounded=0;orthogonalLoop=1;jettySize=auto;html=1;exitX=0.5;exitY=0;exitDx=0;exitDy=0;" edge="1" parent="1" source="ymSWXSZjxfcndTdVbxmt-27">
          <mxGeometry relative="1" as="geometry">
            <mxPoint x="400" y="540" as="targetPoint" />
            <Array as="points">
              <mxPoint x="670" y="540" />
            </Array>
          </mxGeometry>
        </mxCell>
        <mxCell id="ymSWXSZjxfcndTdVbxmt-27" value="View and change details if needed" style="whiteSpace=wrap;html=1;rounded=1;" vertex="1" parent="1">
          <mxGeometry x="610" y="570" width="120" height="60" as="geometry" />
        </mxCell>
        <mxCell id="ymSWXSZjxfcndTdVbxmt-32" value="View and change details if needed" style="whiteSpace=wrap;html=1;rounded=1;" vertex="1" parent="1">
          <mxGeometry x="1050" y="320" width="120" height="60" as="geometry" />
        </mxCell>
        <mxCell id="ymSWXSZjxfcndTdVbxmt-35" value="&quot;Confirm&quot; - Button pressed" style="text;html=1;align=center;verticalAlign=middle;resizable=0;points=[];autosize=1;strokeColor=none;fillColor=none;" vertex="1" parent="1">
          <mxGeometry x="490" y="510" width="170" height="30" as="geometry" />
        </mxCell>
        <mxCell id="ymSWXSZjxfcndTdVbxmt-37" value="Select &quot;Haelth&quot; - Icon at the top" style="text;html=1;align=center;verticalAlign=middle;resizable=0;points=[];autosize=1;strokeColor=none;fillColor=none;" vertex="1" parent="1">
          <mxGeometry x="130" y="390" width="190" height="30" as="geometry" />
        </mxCell>
        <mxCell id="ymSWXSZjxfcndTdVbxmt-40" value="&lt;span style=&quot;text-wrap-mode: wrap;&quot;&gt;User presses on one of the exercises buttons&lt;/span&gt;" style="text;html=1;align=center;verticalAlign=middle;resizable=0;points=[];autosize=1;strokeColor=none;fillColor=none;" vertex="1" parent="1">
          <mxGeometry x="827" y="390" width="260" height="30" as="geometry" />
        </mxCell>
        <mxCell id="ymSWXSZjxfcndTdVbxmt-42" value="&quot;Confirm&quot; - Button pressed" style="text;html=1;align=center;verticalAlign=middle;resizable=0;points=[];autosize=1;strokeColor=none;fillColor=none;" vertex="1" parent="1">
          <mxGeometry x="465" y="768" width="170" height="30" as="geometry" />
        </mxCell>
        <mxCell id="ymSWXSZjxfcndTdVbxmt-50" style="edgeStyle=orthogonalEdgeStyle;rounded=0;orthogonalLoop=1;jettySize=auto;html=1;exitX=1;exitY=0.5;exitDx=0;exitDy=0;entryX=0;entryY=0.5;entryDx=0;entryDy=0;" edge="1" parent="1" source="ymSWXSZjxfcndTdVbxmt-48" target="ymSWXSZjxfcndTdVbxmt-32">
          <mxGeometry relative="1" as="geometry" />
        </mxCell>
        <mxCell id="ymSWXSZjxfcndTdVbxmt-51" style="edgeStyle=orthogonalEdgeStyle;rounded=0;orthogonalLoop=1;jettySize=auto;html=1;exitX=0.5;exitY=0;exitDx=0;exitDy=0;entryX=1;entryY=0.5;entryDx=0;entryDy=0;" edge="1" parent="1" source="ymSWXSZjxfcndTdVbxmt-48" target="ymSWXSZjxfcndTdVbxmt-1">
          <mxGeometry relative="1" as="geometry" />
        </mxCell>
        <mxCell id="ymSWXSZjxfcndTdVbxmt-48" value="" style="rhombus;whiteSpace=wrap;html=1;rounded=1;" vertex="1" parent="1">
          <mxGeometry x="770" y="310" width="80" height="80" as="geometry" />
        </mxCell>
        <mxCell id="ymSWXSZjxfcndTdVbxmt-52" value="Select &quot;Haelth&quot; - Icon at the top" style="text;html=1;align=center;verticalAlign=middle;resizable=0;points=[];autosize=1;strokeColor=none;fillColor=none;" vertex="1" parent="1">
          <mxGeometry x="515" y="208" width="190" height="30" as="geometry" />
        </mxCell>
      </root>
    </mxGraphModel>
  </diagram>
</mxfile>
